<?xml version="1.0" encoding="UTF-8" standalone="no"?>
<svg
        xmlns="http://www.w3.org/2000/svg"
        viewBox="0 0 302 302"
        version="1.1"
>
    <g
            transform="rotate(-10,151,151) translate(0 -750.36)"
    >
        <path
                style="fill:#47d847"
                d="m462.86 553.79a194.29 195.71 0 1 1 -388.57 0 194.29 195.71 0 1 1 388.57 0z"
                transform="matrix(.77206 0 0 .76642 -56.353 476.92)"
        />
        <path
                d="m193.79 997.18c8.4926-2.6466 17.763-6.2395 20.884-8.0939 2.0968-1.2459 2.3923-1.666 1.6668-2.3688-5.2565-5.0916-42.235-37.491-42.561-37.289-0.23855 0.14742-0.84219 2.4569-1.3415 5.1321-0.98547 5.2807-1.9139 6.489-4.9848 6.4876-2.5284 0-4.1959-1.4178-6.6196-5.6238-1.0565-1.8335-2.7647-4.4144-3.796-5.7354-1.0312-1.3209-3.1152-4.6212-4.6311-7.3341-1.5159-2.7128-4.18-7.1825-5.9203-9.9327-3.9893-6.3048-8.6315-13.991-10.388-17.199-0.74351-1.3582-2.5778-4.1266-4.0763-6.1519-1.4986-2.0254-3.4091-5.0256-4.2457-6.6673-0.83659-1.6417-3.2348-5.5352-5.3292-8.6518-2.0945-3.117-4.6113-7.2524-5.5928-9.1895-0.98158-1.9374-2.7841-5.0877-4.0056-7.0007-2.8087-4.3986-6.0788-10.936-6.6438-13.281-0.34447-1.4298-0.0544-2.1595 1.4042-3.532 1.9667-1.8508 2.096-1.8502 8.3529 0.0349 2.1163 0.6376 3.985 1.0222 4.1527 0.85454 0.30149-0.3015-14.017-55.8-14.529-56.311-0.37525-0.37528-17.14 13.705-17.14 14.396 0 0.31306-1.4592 2.0211-3.2426 3.7958-1.7835 1.7746-4.3145 4.9276-5.6246 7.0066-2.0652 3.2774-2.48 4.6516-3.1194 10.335-2.0295 18.037 2.7282 44.701 11.758 65.893 4.8608 11.408 7.7811 17.128 11.233 21.998 1.5609 2.2021 3.6612 5.654 4.6674 7.6709 5.4062 10.836 22.444 30.591 34.334 39.81 8.2043 6.3614 25.615 17.738 29.639 19.368 11.768 4.7652 14.87 4.9561 25.7 1.5811zm30.013-20.446c2.551-6.2696 2.6224-6.6357 1.5007-7.694-0.94786-0.89426-30.822-26.907-34.945-30.428-0.96346-0.82287-1.9321-0.51869-7.9252 2.4888-5.7496 2.8853-6.6816 3.5668-5.903 4.3168 2.8441 2.7396 44.239 38.254 44.401 38.093 0.10624-0.1062 1.3985-3.1554 2.8716-6.776zm-91.81-119.9c2.827-2.153 5.1318-3.9532 5.1216-4.0004-0.76658-3.574-11.939-47.268-12.136-47.466-0.38328-0.38332-14.644-2.3832-14.934-2.0941-0.18089 0.18085 3.7341 15.317 14.482 55.991 0.76146 2.8816 0.28809 3.0358 7.4659-2.4307z"
                style="fill:#ffffff"
        />
    </g
    >
</svg>
