<?xml version="1.0"?>
<svg xmlns:rdf="http://www.w3.org/1999/02/22-rdf-syntax-ns#" xmlns="http://www.w3.org/2000/svg" xmlns:cc="http://creativecommons.org/ns#" xmlns:xlink="http://www.w3.org/1999/xlink" xmlns:dc="http://purl.org/dc/elements/1.1/" xmlns:svg="http://www.w3.org/2000/svg" id="svg14818" viewBox="0 0 147.96 139.33" version="1.0">
  <defs id="defs14820">
    <linearGradient id="linearGradient9070">
      <stop id="stop9072" stop-color="#fff" offset="0"/>
      <stop id="stop9074" stop-color="#fff" stop-opacity="0" offset="1"/>
    </linearGradient>
    <linearGradient id="linearGradient5116">
      <stop id="stop5118" stop-color="#f2f2f2" offset="0"/>
      <stop id="stop5120" stop-color="#f2f2f2" stop-opacity="0" offset="1"/>
    </linearGradient>
    <linearGradient id="linearGradient6250">
      <stop id="stop6252" stop-color="#010101" stop-opacity="0" offset="0"/>
      <stop id="stop6254" stop-color="#fff" offset="1"/>
    </linearGradient>
    <linearGradient id="linearGradient3199">
      <stop id="stop3201" stop-color="#f2b10b" offset="0"/>
      <stop id="stop3203" stop-color="#ba9c23" offset="1"/>
    </linearGradient>
    <linearGradient id="linearGradient9048">
      <stop id="stop9050" stop-color="#fff" offset="0"/>
      <stop id="stop9052" offset="1"/>
    </linearGradient>
    <linearGradient id="linearGradient6568">
      <stop id="stop6570" stop-color="#ffb100" offset="0"/>
      <stop id="stop6572" stop-color="#d3b128" offset="1"/>
    </linearGradient>
    <linearGradient id="linearGradient9036">
      <stop id="stop9038" offset="0"/>
      <stop id="stop9040" stop-opacity="0" offset="1"/>
    </linearGradient>
    <filter id="filter9247" y="-.096352" width="1.2079" x="-.10393" height="1.1927">
      <feGaussianBlur id="feGaussianBlur9249" stdDeviation="7.2536443"/>
    </filter>
    <filter id="filter9203" y="-.10213" width="1.2203" x="-.11017" height="1.2043">
      <feGaussianBlur id="feGaussianBlur9205" stdDeviation="7.6888645"/>
    </filter>
    <filter id="filter8875" y="-.10239" width="1.0849" x="-.042432" height="1.2048">
      <feGaussianBlur id="feGaussianBlur8877" stdDeviation="2.7320879"/>
    </filter>
    <filter id="filter8851">
      <feGaussianBlur id="feGaussianBlur8853" stdDeviation="3.2237056"/>
    </filter>
    <filter id="filter7828" y="-.079663" width="1.2686" x="-.13428" height="1.1593">
      <feGaussianBlur id="feGaussianBlur7830" stdDeviation="3.7771383"/>
    </filter>
    <filter id="filter7784" y="-.076482" width="1.2888" x="-.14441" height="1.153">
      <feGaussianBlur id="feGaussianBlur7786" stdDeviation="3.7532243"/>
    </filter>
    <filter id="filter7740">
      <feGaussianBlur id="feGaussianBlur7742" stdDeviation="2.8658804"/>
    </filter>
    <filter id="filter7712">
      <feGaussianBlur id="feGaussianBlur7714" stdDeviation="2.8658804"/>
    </filter>
    <filter id="filter4765" y="-.027405" width="1.8337" x="-.41684" height="1.0548">
      <feGaussianBlur id="feGaussianBlur4767" stdDeviation="0.28892535"/>
    </filter>
    <filter id="filter4909" y="-.049015" width="2.0986" x="-.5493" height="1.098">
      <feGaussianBlur id="feGaussianBlur4911" stdDeviation="0.51676306"/>
    </filter>
    <filter id="filter4501">
      <feGaussianBlur id="feGaussianBlur4503" stdDeviation="2.1194588"/>
    </filter>
    <linearGradient id="linearGradient4609" x1="24.437" gradientUnits="userSpaceOnUse" y1=".8119" gradientTransform="matrix(3.4355 0 0 3.0869 -6.4408 -25.315)" x2="24.437" y2="35.591">
      <stop id="stop3012" stop-color="#025" offset="0"/>
      <stop id="stop3014" stop-color="#d5d5ff" offset="1"/>
    </linearGradient>
    <radialGradient id="radialGradient4611" gradientUnits="userSpaceOnUse" cy="114.72" cx="66.389" gradientTransform="matrix(1 0 0 .14370 0 98.237)" r="45.735">
      <stop id="stop2882" offset="0"/>
      <stop id="stop2884" stop-color="#909090" stop-opacity="0" offset="1"/>
    </radialGradient>
    <linearGradient id="linearGradient4613" x1="286.98" gradientUnits="userSpaceOnUse" x2="344.81" y1="295" y2="360.81">
      <stop id="stop2216" offset="0"/>
      <stop id="stop2218" stop-color="#f2f2f2" stop-opacity="0" offset="1"/>
    </linearGradient>
    <linearGradient id="linearGradient4615" x1="358.77" gradientUnits="userSpaceOnUse" x2="330.85" y1="275.51" y2="348.62">
      <stop id="stop2226" offset="0"/>
      <stop id="stop2228" stop-color="#fff" stop-opacity="0" offset="1"/>
    </linearGradient>
    <linearGradient id="linearGradient4617" x1="89.172" xlink:href="#linearGradient9036" gradientUnits="userSpaceOnUse" y1="654.52" gradientTransform="matrix(.13254 .039272 -.039272 .13254 19.491 -22.471)" x2="257.47" y2="546.09"/>
    <linearGradient id="linearGradient4619" x1="457.97" xlink:href="#linearGradient9048" gradientUnits="userSpaceOnUse" y1="551.95" gradientTransform="matrix(.13254 .039272 -.039272 .13254 19.67 -22.33)" x2="632.47" y2="619.08"/>
    <linearGradient id="linearGradient4621" x1="222.66" xlink:href="#linearGradient6250" gradientUnits="userSpaceOnUse" y1="477.23" gradientTransform="matrix(.88886 0 0 .89765 -101 -21.834)" x2="263.6" y2="434.95"/>
    <linearGradient id="linearGradient4623" x1="222.66" xlink:href="#linearGradient6250" gradientUnits="userSpaceOnUse" y1="477.23" gradientTransform="matrix(-.88005 .12483 .12607 .88875 507.91 -44.386)" x2="263.6" y2="434.95"/>
    <linearGradient id="linearGradient4625" x1="324.16" xlink:href="#linearGradient5116" gradientUnits="userSpaceOnUse" y1="205.99" gradientTransform="matrix(.15235 .045142 -.068736 .23197 18.599 -45.234)" x2="332.64" y2="251.07"/>
    <linearGradient id="linearGradient4627" x1="322.17" xlink:href="#linearGradient9070" gradientUnits="userSpaceOnUse" y1="315.61" gradientTransform="translate(73.684 3.1589)" x2="322.28" y2="347.41"/>
    <linearGradient id="linearGradient4629" x1="322.17" xlink:href="#linearGradient9070" gradientUnits="userSpaceOnUse" y1="315.61" gradientTransform="translate(.76049 .38466)" x2="322.28" y2="347.41"/>
    <linearGradient id="linearGradient4632" x1="232.56" xlink:href="#linearGradient6568" gradientUnits="userSpaceOnUse" y1="537.05" gradientTransform="matrix(.13254 .039272 -.039272 .13254 19.491 -22.471)" x2="298.25" y2="687.93"/>
    <linearGradient id="linearGradient4634" x1="236.89" xlink:href="#linearGradient9070" gradientUnits="userSpaceOnUse" y1="534" gradientTransform="matrix(1 0 0 .99205 -131.91 -57.783)" x2="264.03" y2="588.24"/>
    <linearGradient id="linearGradient4636" x1="481.02" xlink:href="#linearGradient3199" gradientUnits="userSpaceOnUse" y1="572.29" gradientTransform="matrix(.13254 .039272 -.039272 .13254 19.491 -22.471)" x2="436.33" y2="686.35"/>
    <linearGradient id="linearGradient4638" x1="236.89" xlink:href="#linearGradient9070" gradientUnits="userSpaceOnUse" y1="534" gradientTransform="matrix(.71201 .73967 -.75153 .68992 596.14 -65.83)" x2="264.03" y2="588.24"/>
    <linearGradient id="linearGradient4640" x1="-1168.2" xlink:href="#linearGradient9070" gradientUnits="userSpaceOnUse" y1="416.6" gradientTransform="matrix(.85356 0 0 1.0775 -170.68 -29.255)" x2="-1170.4" y2="397.43"/>
    <linearGradient id="linearGradient4642" x1="362.71" gradientUnits="userSpaceOnUse" y1="387.21" gradientTransform="matrix(.93442 0 0 .83698 -1503.2 76.695)" x2="370.14" y2="358.18">
      <stop id="stop5164" stop-color="#fff" stop-opacity="0" offset="0"/>
      <stop id="stop5166" stop-color="#fff" offset="1"/>
    </linearGradient>
    <linearGradient id="linearGradient4644" y2="8.2397" gradientUnits="userSpaceOnUse" y1="34.556" x2="27.367" x1="21.005">
      <stop id="stop2908" stop-color="#464700" offset="0"/>
      <stop id="stop2910" stop-color="#feff5d" offset="1"/>
    </linearGradient>
    <linearGradient id="linearGradient4646" y2="8.1245" gradientUnits="userSpaceOnUse" y1="31.763" x2="25.647" x1="25.295">
      <stop id="stop2891" stop-color="#271c00" offset="0"/>
      <stop id="stop2893" stop-color="#ffffad" stop-opacity="0" offset="1"/>
    </linearGradient>
    <radialGradient id="radialGradient4648" gradientUnits="userSpaceOnUse" cy="22.912" cx="31.055" gradientTransform="matrix(-2.1268 -.95293 .32234 -.71941 129.74 70.32)" r="10.13">
      <stop id="stop2865" stop-color="#f6ff5f" offset="0"/>
      <stop id="stop2867" stop-color="#796600" offset="1"/>
    </radialGradient>
    <linearGradient id="linearGradient4650" x1="22.296" gradientUnits="userSpaceOnUse" y1="18.059" gradientTransform="matrix(1.359 .40269 -.40269 1.359 33.818 -4.642)" x2="36.505" y2="9.3887">
      <stop id="stop2916" stop-opacity=".4" offset="0"/>
      <stop id="stop2918" stop-color="#faf9a7" stop-opacity=".22143" offset="1"/>
    </linearGradient>
    <linearGradient id="linearGradient4658" x1="89.172" xlink:href="#linearGradient9036" gradientUnits="userSpaceOnUse" y1="654.52" gradientTransform="matrix(.095575 .028320 -.030062 .10146 58.986 14.81)" x2="257.47" y2="546.09"/>
    <linearGradient id="linearGradient4660" x1="457.97" xlink:href="#linearGradient9048" gradientUnits="userSpaceOnUse" y1="551.95" gradientTransform="matrix(.095575 .028320 -.030062 .10146 59.114 14.915)" x2="632.47" y2="619.08"/>
    <linearGradient id="linearGradient4666" x1="324.16" xlink:href="#linearGradient5116" gradientUnits="userSpaceOnUse" y1="205.99" gradientTransform="matrix(.10986 .032553 -.052617 .17757 58.615 -2.5226)" x2="332.64" y2="251.07"/>
    <linearGradient id="linearGradient4668" x1="232.56" xlink:href="#linearGradient6568" gradientUnits="userSpaceOnUse" y1="537.05" gradientTransform="matrix(.095575 .028320 -.030062 .10146 58.986 14.81)" x2="298.25" y2="687.93"/>
    <linearGradient id="linearGradient4672" x1="481.02" xlink:href="#linearGradient3199" gradientUnits="userSpaceOnUse" y1="572.29" gradientTransform="matrix(.095575 .028320 -.030062 .10146 58.986 14.81)" x2="436.33" y2="686.35"/>
    <radialGradient id="radialGradient4676" gradientUnits="userSpaceOnUse" cy="21.4" cx="30.713" gradientTransform="matrix(1 0 0 .95918 0 .87347)" r=".59981">
      <stop id="stop4137" stop-color="#d40000" offset="0"/>
      <stop id="stop4139" stop-color="#faa" stop-opacity="0" offset="1"/>
    </radialGradient>
    <radialGradient id="radialGradient4690" gradientUnits="userSpaceOnUse" cy="26.834" cx="-15.13" gradientTransform="matrix(1.0849 .28482 -.39893 1.5066 84.284 51.012)" r="7.4183">
      <stop id="stop5685" stop-color="#929292" offset="0"/>
      <stop id="stop5687" stop-color="#fff" offset="1"/>
    </radialGradient>
    <radialGradient id="radialGradient4692" gradientUnits="userSpaceOnUse" cy="26.142" cx="-15.13" gradientTransform="matrix(1.6359 .48676 -.81773 2.7489 103.29 22.632)" r="7.4183">
      <stop id="stop5693" offset="0"/>
      <stop id="stop5695" stop-opacity="0" offset="1"/>
    </radialGradient>
    <radialGradient id="radialGradient4694" gradientUnits="userSpaceOnUse" cy="24.041" cx="-15.199" gradientTransform="matrix(1.3771 .40804 -.48011 1.6203 90.791 50.134)" r="6.7608">
      <stop id="stop5677" offset="0"/>
      <stop id="stop5679" stop-opacity="0" offset="1"/>
    </radialGradient>
    <linearGradient id="linearGradient4704" x1="232.56" xlink:href="#linearGradient6568" gradientUnits="userSpaceOnUse" y1="537.05" gradientTransform="matrix(.045089 .013360 -.015603 .033531 49.057 65.626)" x2="298.25" y2="687.93"/>
    <linearGradient id="linearGradient4712" x1="232.56" xlink:href="#linearGradient6568" gradientUnits="userSpaceOnUse" y1="537.05" gradientTransform="matrix(-.045089 -.013360 -.0051827 .036619 75.177 73.57)" x2="298.25" y2="687.93"/>
    <linearGradient id="linearGradient4716" x1="2.9909" gradientUnits="userSpaceOnUse" y1="7.5407" gradientTransform="matrix(.95682 .28351 -.28410 .95879 20.198 -16.845)" x2="125.65" y2="109.59">
      <stop id="stop3623" stop-color="#999" stop-opacity=".71206" offset="0"/>
      <stop id="stop3625" stop-color="#6a6a6a" stop-opacity="0" offset=".14362"/>
      <stop id="stop3627" stop-color="#f2f2f2" stop-opacity="0" offset=".49661"/>
      <stop id="stop3629" stop-color="#fcfcfc" stop-opacity="0" offset=".84366"/>
      <stop id="stop3631" stop-color="#fff" offset="1"/>
    </linearGradient>
  </defs>
  <g id="layer1" transform="translate(9.7025 10.844)">
    <g id="g4505">
      <path id="path3245" opacity=".58366" filter="url(#filter4501)" fill-rule="evenodd" d="m137.78 26.073l-29.78 102.41c-37.999-16.65-75.509-28.788-116.08-35.02l30.002-101.71 115.86 34.323z"/>
      <path id="path16677" fill-rule="evenodd" fill="#e6e6e6" d="m138.23 24.49l-29.4 101.19-118.53-35.745 29.632-100.5 118.3 35.055z"/>
      <rect id="rect3008" stroke-linejoin="round" transform="matrix(.95879 .28410 -.28410 .95879 0 0)" stroke-dashoffset=".9568" height="95.723" width="114.64" stroke="#232323" stroke-linecap="round" y="-11.363" x="20.192" stroke-width=".2765" fill="url(#linearGradient4609)"/>
      <rect id="rect4093" opacity=".78571" transform="matrix(.95879 .28410 -.28410 .95879 0 0)" height="70.273" width="114.61" y="-11.29" x="19.932" fill="#800000"/>
      <path id="path4131" opacity=".20357" fill-rule="evenodd" d="m45.632 75l20.993-66.222-15.151 68.48-5.842-2.258z"/>
      <path id="path2301" transform="matrix(.77729 .23032 -.19275 .65049 14.239 -6.3465)" fill="url(#radialGradient4611)" d="m112.12 114.72a45.735 6.5718 0 1 1 -91.466 0 45.735 6.5718 0 1 1 91.466 0z"/>
      <path id="path10112" stroke-linejoin="round" d="m69.727 47.802c10.464 19.088 2.386 40.889-22.175 38.279-1.429-0.416-12.103-3.691-13.412-4.066-25.641-9.47-15.188-34.515 2.05-45.283 1.25-0.664 1.297-1.636 1.703-2.689 3.865-11.656 6.31-19.305 21.729-14.835 15.011 4.352 12.257 14.122 11.941 16.974-0.326 2.931-2.147 8.795-1.836 11.62z" stroke-opacity=".010489" fill-rule="evenodd" stroke-dashoffset=".9568" stroke="#ccc" stroke-linecap="round" stroke-width=".13825" fill="#1a1a1a"/>
      <path id="path10114" fill-rule="evenodd" fill="#fff" d="m56.708 26.666c-3.641-1.006-6.693-5.372-9.97-3.145-3.629 2.577-5.188 6.975-6.672 10.984-0.39 1.65-1.05 3.566-2.755 4.232-3.072 2.043 3.22 9.993 0.713 12.749-3.133 3.444-14.835 1.888-16.195 6.377-1.215 4.647-0.936 12.816 2.519 16.227 4.468 4.883 10.324 7.546 16.491 9.55 5.953 1.785 12.941 2.64 19.021 0.92 4.258-1.336 8.743-7.574 10.109-11.869 2.25-6.107-7.469-7.895-9.15-14.055-0.807-2.784 7.667-8.545 6.454-11.16 0.156-1.942 0.326-5.561 0.512-7.497 0.772-4.166 0.848-8.939-1.786-12.509-1.982-2.571-6.211-0.013-9.291-0.804z"/>
      <path id="path10116" opacity=".21233" d="m374.72 348.62a43.869 73.116 0 1 1 -87.74 0 43.869 73.116 0 1 1 87.74 0z" fill-rule="evenodd" transform="matrix(.12149 .035999 -.029454 .099402 18.278 -14.745)" filter="url(#filter7712)" fill="url(#linearGradient4613)"/>
      <path id="path10118" opacity=".21233" d="m374.72 348.62a43.869 73.116 0 1 1 -87.74 0 43.869 73.116 0 1 1 87.74 0z" fill-rule="evenodd" transform="matrix(.12149 .035999 -.029454 .099402 30.876 -11.012)" filter="url(#filter7740)" fill="url(#linearGradient4615)"/>
      <path id="path10120" opacity=".61644" fill-rule="evenodd" fill="url(#linearGradient4617)" d="m29.785 78.907c1.113-3.607 3.988-22.304 5.045-25.719-3.11 0.665-6.688 1.183-8.36 1.564-1.634 0.372-2.873 1.02-3.679 1.584-0.805 0.563-0.874 0.394-1.156 1.797-0.282 1.402-0.694 4.399-0.534 6.615 0.16 2.217 0.626 4.806 1.496 6.683 0.85 2.092 2.724 4.071 7.188 7.476z"/>
      <path id="path10122" opacity=".64041" fill-rule="evenodd" fill="url(#linearGradient4619)" d="m55.094 85.608c1.08-3.81 6.08-20.691 7.1-24.3 1.881 2.332 4.351 3.962 5.83 5.383 1.558 1.412 1.846 2.026 2.259 3.091 0.419 1.078 0.425 1.74-0.135 3.132-0.848 2.292-1.625 3.885-3.078 5.729-1.452 1.845-2.984 3.962-5.315 5.272-1.917 1.13-4.159 1.421-6.661 1.693z"/>
      <path id="path10126" d="m111.28 335.91c2.08 7.49 7.37 19.75 13.3 27.53 6.6 10.14 13.59 18.33 18.71 28.7 2.31 5 2.03 7.93 0.7 12.66-3.48 5.79-6.44 6.15-14.62 10.54s-9.05 3.16-18.09 7.03c-9.05 3.86-19.665 15.46-18.099 8.43s19.489-19.68 24.359-36.55c1.49-14-1.22-11.4-4.87-30.92-1.57-14.59-3.63-33.07-1.39-27.42z" fill-rule="evenodd" transform="matrix(.13254 .039272 -.039272 .13254 34.515 -8.9909)" filter="url(#filter7784)" fill="url(#linearGradient4621)"/>
      <path id="path10128" d="m347.97 339.63c-1.01 7.71-4.52 20.58-9.31 29.13-5.1 10.96-10.88 20.05-14.49 31.04-1.58 5.27-0.89 8.13 1.09 12.62 4.26 5.25 7.24 5.19 15.95 8.39s9.4 1.86 18.9 4.42c9.51 2.55 21.64 12.54 19.11 5.81-2.54-6.74-22.06-16.75-29.26-32.77-3.44-13.66-0.38-11.46 0.48-31.31-0.49-14.66-1.04-33.24-2.47-27.33z" fill-rule="evenodd" transform="matrix(.13254 .039272 -.039272 .13254 34.515 -8.9909)" filter="url(#filter7828)" fill="url(#linearGradient4623)"/>
      <path id="path10130" fill-rule="evenodd" fill="url(#linearGradient4625)" d="m38.651 32.965c4.225-11.811 7.147-13.798 12.006-14.365 3.861-0.555 8.844 0.98 10.269 1.508 2.086 0.802 3.652 1.467 5.816 2.998-5.774-2.301-13.952 8.409-15.845 5.025-2.905-5.195-6.208-2.641-12.246 4.834z"/>
      <g id="g10132" transform="matrix(.13254 .039272 -.039272 .13254 19.313 -22.8)" fill-rule="evenodd">
        <path id="path10134" stroke-linejoin="round" d="m331.43 530.93a25.714 35.714 0 1 1 -51.43 0 25.714 35.714 0 1 1 51.43 0z" stroke-opacity=".010489" stroke-dashoffset=".9568" transform="matrix(.72926 0 0 .60998 173.04 17.295)" stroke="#ccc" stroke-linecap="round" stroke-width="1.4996"/>
        <path id="path10136" fill="url(#linearGradient4627)" d="m384.3 325.15c8.04-7.6 18.13-5.36 21.92-1.43 7.87 6.4 7.15 14.5 4.04 18.51-2.66 3.44-11.75 6.1-13.2-6.2-2.26-18.11-17.28-4.23-12.76-10.88z"/>
      </g>
      <g id="g10138" transform="matrix(.13254 .039272 -.039272 .13254 18.947 -22.495)" fill-rule="evenodd">
        <path id="path10140" stroke-linejoin="round" d="m331.43 530.93a25.714 35.714 0 1 1 -51.43 0 25.714 35.714 0 1 1 51.43 0z" stroke-opacity=".010489" stroke-dashoffset=".9568" transform="matrix(.72926 0 0 .60998 100.12 14.521)" stroke="#ccc" stroke-linecap="round" stroke-width="1.4996"/>
        <path id="path10142" fill="url(#linearGradient4629)" d="m311.37 322.38c8.04-7.61 18.13-5.37 21.92-1.44 7.87 6.4 7.15 14.51 4.05 18.52-2.67 3.44-11.75 6.09-13.2-6.2-2.27-18.11-17.29-4.24-12.77-10.88z"/>
      </g>
      <path id="path10146" opacity=".651" d="m1500.2 575.96c-13.9 87.04-15.6 87.7-84.6 32.88-42.9-34.15-54.3-43.34-40.9-59.14 6.8-8.15 29.6-15.05 37.1-41.1 4-14.77 9.5-15.5 20.5-8.64 30.2 12.89 51.1 0.08 66.6 2.75 15.8 7.26 10.5 15.42 1.3 73.25z" fill-rule="evenodd" transform="matrix(.12901 .049388 -.046645 .11562 -129.34 -66.573)" filter="url(#filter9203)"/>
      <path id="path10148" fill-rule="evenodd" fill="url(#linearGradient4632)" d="m37.459 71.863c-5.251 10.993-5.501 11.013-12.492 1.038-4.354-6.212-5.495-7.876-3.109-9.447 1.232-0.81 4.516-0.832 6.533-3.99 1.111-1.799 1.873-1.679 3.061-0.338 3.491 2.892 6.762 2.015 8.718 2.98 1.813 1.583 0.778 2.453-2.711 9.757z"/>
      <path id="path10150" d="m57.239 540.38c0.281-2.37 1.171-6.08 3.092-8.64 1.92-2.55 4.731-3.86 8.431-6.69 3.701-2.83 9.556-6.51 13.772-10.32s8.666-7.9 11.523-12.54c2.857-4.65 4.122-11.34 5.621-15.34 1.502-3.99 1.682-6.83 3.372-8.64s4.36-2.42 6.75-2.23c2.38 0.18 4.82 2 7.58 3.34 2.77 1.35 5.58 3.63 9 4.74 3.42 1.12 7.59 1.54 11.52 1.96 3.94 0.41 8.01 0.74 12.09 0.55 4.07-0.18 9.22-1.16 12.36-1.67s13.59-4.37 6.47-1.39c-7.12 2.97-35.74 12.96-49.19 19.23-13.44 6.28-22.435 12.88-31.475 18.41-9.041 5.53-17.847 10.64-22.765 14.77-4.919 4.14-5.387 9.3-6.745 10.04-1.359 0.74-1.687-3.21-1.406-5.58z" fill-rule="evenodd" transform="matrix(.13254 .039272 -.039272 .13254 34.515 -8.9909)" filter="url(#filter8851)" fill="url(#linearGradient4634)"/>
      <path id="path10152" opacity=".58562" d="m1574.9 586.31c13.9 87.04 15.6 87.7 84.6 32.88 42.9-34.14 54.3-43.33 40.9-59.13-6.8-8.16-29.6-15.06-37.1-41.11-4-14.76-9.5-15.49-20.5-8.64-30.2 12.89-51.1 0.08-66.6 2.76-15.8 7.25-10.4 15.41-1.3 73.24z" fill-rule="evenodd" transform="matrix(.13458 .031370 -.027575 .12426 -147.72 -44.715)" filter="url(#filter9247)"/>
      <path id="path10154" fill-rule="evenodd" fill="url(#linearGradient4636)" d="m49.654 76.087c-1.585 12.079-1.387 12.233 9.909 7.677 7.036-2.838 8.899-3.611 7.754-6.229-0.591-1.351-3.334-3.158-3.304-6.905 0.048-2.114-0.656-2.429-2.383-1.951-4.503 0.523-6.768-1.994-8.934-2.251-2.383 0.34-1.989 1.633-3.042 9.659z"/>
      <path id="path10156" d="m277.67 490.07c2-1.44 5.45-3.37 8.75-3.72 3.3-0.36 6.29 0.81 11.07 1.58 4.79 0.77 11.74 2.54 17.62 3.01 5.89 0.47 12.16 0.92 17.71-0.2 5.56-1.12 11.53-4.84 15.62-6.51 4.1-1.67 6.38-3.5 8.95-3.51 2.57-0.02 4.93 1.54 6.49 3.43 1.56 1.9 1.93 4.96 2.87 7.94 0.95 2.99 1.23 6.65 2.81 9.95 1.59 3.31 4.25 6.68 6.73 9.88 2.49 3.2 5.14 6.45 8.18 9.33 3.05 2.89 7.45 6.02 10.08 7.98 2.62 1.97 12.98 7.01 5.65 3.82-7.32-3.2-35.26-17.42-49.59-23-14.32-5.59-25.73-7.65-36.35-10.49-10.63-2.84-20.77-5.8-27.41-6.56-6.63-0.76-10.87 2.48-12.4 1.99s1.23-3.48 3.22-4.92z" fill-rule="evenodd" transform="matrix(.13254 .039272 -.039272 .13254 34.515 -8.9909)" filter="url(#filter8875)" fill="url(#linearGradient4638)"/>
      <g id="g10158" transform="matrix(.14943 .044276 -.044276 .14942 243.79 34.229)" fill-rule="evenodd">
        <path id="path10160" fill="#ffaf00" d="m-1134.9 403.85c-33.3 21.54-34.6 21.54-66.7-0.26-20-13.58-25.2-17.21-11.8-19.97 6.9-1.43 24.3-0.84 36.6-6.93 6.8-3.48 10.8-3.09 16.4-0.11 17.1 6.6 34.9 5.43 44.7 7.78 8.9 3.6 3 5.18-19.2 19.49z"/>
        <path id="path10162" opacity=".5274" fill="url(#linearGradient4640)" d="m-1199.6 400.53c0.9 2.72 14.5 10.86 22.1 15.76 7.5 3.06 12.6 2.83 17.4 0.05 8.5-4.83 42.4-23.74 41.5-24.79-6.6 2.5-30.1 14.78-40 17.33-5.6 0.76-9.2 0.04-14.4-1.07-10.3-1.45-24.6-8.8-26.6-7.28z"/>
        <path id="path10164" fill="url(#linearGradient4642)" d="m-1196.1 384.4c2.1-1.83 3.9-1.4 13.2-3.01 5.8-0.99 10.4-5.48 14.6-5.46 5.8 0.06 15.3 7.97 46.5 8.71 4 0.31 8.3 1.94 5.2 4.58-13.2 5.52-26.4 10.05-38.1 14.05-6.2-1-44.3-15.71-41.4-18.87z"/>
      </g>
      <path id="path2280" stroke-linejoin="round" d="m39.815 19.49a14.255 12.092 0 1 1 -28.509 0 14.255 12.092 0 1 1 28.509 0z" stroke-dashoffset=".9568" transform="matrix(1.1542 1.0099 -.28233 .33052 36.666 -4.6344)" stroke="url(#linearGradient4646)" stroke-linecap="round" stroke-width=".58522" fill="url(#linearGradient4644)"/>
      <path id="path2861" d="m48.751 17.551c-0.406 5.885 17.687 19.639 23.109 21.09 3.333-5.247 3.564-7.577 1.772-11.257s-7.672-9.831-11.678-11.599c-4.006-1.769-8.626-3.415-13.203 1.766z" fill-rule="evenodd" stroke="url(#linearGradient4650)" stroke-width=".2765" fill="url(#radialGradient4648)"/>
      <path id="path2879" opacity=".43929" fill-rule="evenodd" fill-opacity=".66423" d="m45.75 19.659c-1.65 1.32-1.226 1.262-2.469 2.493 5.613 10.079 14.31 16.54 24.487 21.414 0.681-1.08 0.78-0.949 1.998-3.027-9.391-5.118-17.626-12.305-24.016-20.88z"/>
      <path id="path2676" transform="matrix(.56052 .16609 -.14754 .49794 54.985 27.159)" fill="url(#radialGradient4611)" d="m112.12 114.72a45.735 6.5718 0 1 1 -91.466 0 45.735 6.5718 0 1 1 91.466 0z"/>
      <path id="path2680" stroke-linejoin="round" d="m94.543 67.745c7.357 14.416 1.235 31.125-16.533 29.433-1.031-0.3-8.727-2.666-9.671-2.936-18.467-6.906-10.589-26.114 2.033-34.526 0.914-0.521 0.96-1.263 1.267-2.07 2.942-8.928 4.806-14.785 15.927-11.565 10.826 3.134 8.712 10.611 8.448 12.788-0.271 2.237-1.662 6.727-1.471 8.876z" stroke-opacity=".010489" fill-rule="evenodd" stroke-dashoffset=".9568" stroke="#ccc" stroke-linecap="round" stroke-width=".13825" fill="#1a1a1a"/>
      <path id="path2682" fill-rule="evenodd" fill="#fff" d="m85.364 51.798c-2.627-0.722-4.786-4.012-7.188-2.276-2.661 2.007-3.844 5.378-4.968 8.45-0.302 1.262-0.804 2.73-2.048 3.258-2.251 1.593 2.213 7.575 0.363 9.705-2.312 2.662-10.773 1.617-11.814 5.054-0.936 3.555-0.833 9.776 1.63 12.333 3.179 3.667 7.391 5.625 11.836 7.077 4.292 1.288 9.346 1.855 13.773 0.471 3.102-1.069 6.428-5.876 7.47-9.165 1.704-4.681-5.318-5.925-6.462-10.598-0.551-2.112 5.66-6.603 4.813-8.581 0.136-1.481 0.303-4.241 0.461-5.719 0.61-3.183 0.723-6.821-1.143-9.509-1.405-1.934-4.501 0.066-6.723-0.5z"/>
      <path id="path2684" opacity=".21233" d="m374.72 348.62a43.869 73.116 0 1 1 -87.74 0 43.869 73.116 0 1 1 87.74 0z" fill-rule="evenodd" transform="matrix(.087611 .025960 -.022547 .076091 58.014 20.711)" filter="url(#filter7712)" fill="url(#linearGradient4613)"/>
      <path id="path2686" opacity=".21233" d="m374.72 348.62a43.869 73.116 0 1 1 -87.74 0 43.869 73.116 0 1 1 87.74 0z" fill-rule="evenodd" transform="matrix(.087611 .025960 -.022547 .076091 67.098 23.403)" filter="url(#filter7740)" fill="url(#linearGradient4615)"/>
      <path id="path2688" opacity=".61644" fill-rule="evenodd" fill="url(#linearGradient4658)" d="m65.221 91.926c0.85-2.761 3.16-17.041 3.967-19.656-2.262 0.544-4.861 0.982-6.078 1.293-1.188 0.303-2.094 0.812-2.685 1.251-0.59 0.439-0.638 0.311-0.859 1.383-0.221 1.071-0.557 3.36-0.467 5.047 0.089 1.687 0.395 3.654 1.003 5.074 0.591 1.583 1.925 3.068 5.119 5.608z"/>
      <path id="path2690" opacity=".64041" fill-rule="evenodd" fill="url(#linearGradient4660)" d="m83.482 96.726c0.828-2.915 4.656-15.838 5.438-18.6 1.335 1.754 3.106 2.967 4.16 4.031 1.112 1.057 1.314 1.522 1.6 2.328 0.291 0.816 0.288 1.32-0.136 2.388-0.642 1.756-1.224 2.979-2.299 4.402s-2.211 3.055-3.916 4.081c-1.403 0.884-3.031 1.133-4.847 1.37z"/>
      <path id="path2692" d="m111.28 335.91c2.08 7.49 7.37 19.75 13.3 27.53 6.6 10.14 13.59 18.33 18.71 28.7 2.31 5 2.03 7.93 0.7 12.66-3.48 5.79-6.44 6.15-14.62 10.54s-9.05 3.16-18.09 7.03c-9.05 3.86-19.665 15.46-18.099 8.43s19.489-19.68 24.359-36.55c1.49-14-1.22-11.4-4.87-30.92-1.57-14.59-3.63-33.07-1.39-27.42z" fill-rule="evenodd" transform="matrix(.095575 .028320 -.030062 .10146 69.711 24.899)" filter="url(#filter7784)" fill="url(#linearGradient4621)"/>
      <path id="path2694" d="m347.97 339.63c-1.01 7.71-4.52 20.58-9.31 29.13-5.1 10.96-10.88 20.05-14.49 31.04-1.58 5.27-0.89 8.13 1.09 12.62 4.26 5.25 7.24 5.19 15.95 8.39s9.4 1.86 18.9 4.42c9.51 2.55 21.64 12.54 19.11 5.81-2.54-6.74-22.06-16.75-29.26-32.77-3.44-13.66-0.38-11.46 0.48-31.31-0.49-14.66-1.04-33.24-2.47-27.33z" fill-rule="evenodd" transform="matrix(.095575 .028320 -.030062 .10146 69.711 24.899)" filter="url(#filter7828)" fill="url(#linearGradient4623)"/>
      <path id="path2696" fill-rule="evenodd" fill="url(#linearGradient4666)" d="m72.201 56.816c3.205-9.05 5.346-10.599 8.875-11.09 2.804-0.47 6.397 0.639 7.423 1.025 1.502 0.585 2.629 1.073 4.179 2.214-4.157-1.684-10.212 6.575-11.543 4.019-2.043-3.922-4.467-1.937-8.934 3.832z"/>
      <path id="path2710" opacity=".651" d="m1500.2 575.96c-13.9 87.04-15.6 87.7-84.6 32.88-42.9-34.15-54.3-43.34-40.9-59.14 6.8-8.15 29.6-15.05 37.1-41.1 4-14.77 9.5-15.5 20.5-8.64 30.2 12.89 51.1 0.08 66.6 2.75 15.8 7.26 10.5 15.42 1.3 73.25z" fill-rule="evenodd" transform="matrix(.092894 .036070 -.035201 .088652 -48.34 -16.993)" filter="url(#filter9203)"/>
      <path id="path2712" fill-rule="evenodd" fill="url(#linearGradient4668)" d="m70.868 86.467c-3.939 8.439-4.121 8.458-9.066 0.942-3.081-4.681-3.887-5.934-2.139-7.16 0.902-0.633 3.283-0.689 4.782-3.12 0.828-1.384 1.378-1.301 2.223-0.294 2.495 2.161 4.876 1.453 6.282 2.165 1.295 1.184 0.534 1.86-2.082 7.467z"/>
      <path id="path2714" d="m57.239 540.38c0.281-2.37 1.171-6.08 3.092-8.64 1.92-2.55 4.731-3.86 8.431-6.69 3.701-2.83 9.556-6.51 13.772-10.32s8.666-7.9 11.523-12.54c2.857-4.65 4.122-11.34 5.621-15.34 1.502-3.99 1.682-6.83 3.372-8.64s4.36-2.42 6.75-2.23c2.38 0.18 4.82 2 7.58 3.34 2.77 1.35 5.58 3.63 9 4.74 3.42 1.12 7.59 1.54 11.52 1.96 3.94 0.41 8.01 0.74 12.09 0.55 4.07-0.18 9.22-1.16 12.36-1.67s13.59-4.37 6.47-1.39c-7.12 2.97-35.74 12.96-49.19 19.23-13.44 6.28-22.435 12.88-31.475 18.41-9.041 5.53-17.847 10.64-22.765 14.77-4.919 4.14-5.387 9.3-6.745 10.04-1.359 0.74-1.687-3.21-1.406-5.58z" fill-rule="evenodd" transform="matrix(.095575 .028320 -.030062 .10146 69.711 24.899)" filter="url(#filter8851)" fill="url(#linearGradient4634)"/>
      <path id="path2716" opacity=".58562" d="m1574.9 586.31c13.9 87.04 15.6 87.7 84.6 32.88 42.9-34.14 54.3-43.33 40.9-59.13-6.8-8.16-29.6-15.06-37.1-41.11-4-14.76-9.5-15.49-20.5-8.64-30.2 12.89-51.1 0.08-66.6 2.76-15.8 7.25-10.4 15.41-1.3 73.24z" fill-rule="evenodd" transform="matrix(.097152 .022275 -.021485 .095005 -61.924 -.11696)" filter="url(#filter9247)"/>
      <path id="path2718" fill-rule="evenodd" fill="url(#linearGradient4672)" d="m79.654 89.538c-1.295 9.222-1.153 9.337 7.089 5.729 5.133-2.247 6.492-2.859 5.694-4.839-0.412-1.022-2.378-2.366-2.311-5.221 0.061-1.612-0.446-1.843-1.703-1.458-3.27 0.453-4.881-1.438-6.447-1.607-1.732 0.288-1.462 1.268-2.322 7.396z"/>
      <path id="path2720" d="m277.67 490.07c2-1.44 5.45-3.37 8.75-3.72 3.3-0.36 6.29 0.81 11.07 1.58 4.79 0.77 11.74 2.54 17.62 3.01 5.89 0.47 12.16 0.92 17.71-0.2 5.56-1.12 11.53-4.84 15.62-6.51 4.1-1.67 6.38-3.5 8.95-3.51 2.57-0.02 4.93 1.54 6.49 3.43 1.56 1.9 1.93 4.96 2.87 7.94 0.95 2.99 1.23 6.65 2.81 9.95 1.59 3.31 4.25 6.68 6.73 9.88 2.49 3.2 5.14 6.45 8.18 9.33 3.05 2.89 7.45 6.02 10.08 7.98 2.62 1.97 12.98 7.01 5.65 3.82-7.32-3.2-35.26-17.42-49.59-23-14.32-5.59-25.73-7.65-36.35-10.49-10.63-2.84-20.77-5.8-27.41-6.56-6.63-0.76-10.87 2.48-12.4 1.99s1.23-3.48 3.22-4.92z" fill-rule="evenodd" transform="matrix(.095575 .028320 -.030062 .10146 69.711 24.899)" filter="url(#filter8875)" fill="url(#linearGradient4638)"/>
      <path id="path4143" opacity=".20357" transform="matrix(5.1218 1.5176 -1.4664 4.9491 -49.98 -91.642)" fill="url(#radialGradient4676)" d="m31.313 21.4a0.59981 0.57533 0 1 1 -1.2 0 0.59981 0.57533 0 1 1 1.2 0z"/>
      <path id="path4133" opacity=".20357" transform="matrix(5.1218 1.5176 -1.4664 4.9491 -37.942 -88.073)" fill="url(#radialGradient4676)" d="m31.313 21.4a0.59981 0.57533 0 1 1 -1.2 0 0.59981 0.57533 0 1 1 1.2 0z"/>
      <g id="g2722" transform="matrix(.10776 .031929 -.033893 .11438 220.85 55.3)" fill-rule="evenodd">
        <path id="path2724" fill="#ffaf00" d="m-1134.9 403.85c-33.3 21.54-34.6 21.54-66.7-0.26-20-13.58-25.2-17.21-11.8-19.97 6.9-1.43 24.3-0.84 36.6-6.93 6.8-3.48 10.8-3.09 16.4-0.11 17.1 6.6 34.9 5.43 44.7 7.78 8.9 3.6 3 5.18-19.2 19.49z"/>
        <path id="path2726" opacity=".5274" fill="url(#linearGradient4640)" d="m-1199.6 400.53c0.9 2.72 14.5 10.86 22.1 15.76 7.5 3.06 12.6 2.83 17.4 0.05 8.5-4.83 42.4-23.74 41.5-24.79-6.6 2.5-30.1 14.78-40 17.33-5.6 0.76-9.2 0.04-14.4-1.07-10.3-1.45-24.6-8.8-26.6-7.28z"/>
        <path id="path2728" fill="url(#linearGradient4642)" d="m-1196.1 384.4c2.1-1.83 3.9-1.4 13.2-3.01 5.8-0.99 10.4-5.48 14.6-5.46 5.8 0.06 15.3 7.97 46.5 8.71 4 0.31 8.3 1.94 5.2 4.58-13.2 5.52-26.4 10.05-38.1 14.05-6.2-1-44.3-15.71-41.4-18.87z"/>
      </g>
      <g id="g3835" transform="matrix(3.4893 1.0339 -1.0339 3.4893 -114.27 -7.7979)">
        <path id="path3820" stroke="#000" stroke-width=".075978" fill="none" d="m56.186 1.8218l0.012-0.4361"/>
        <g id="g3826">
          <path id="path2858" stroke="#000" stroke-width=".075978" fill="none" d="m55.809 1.9648l-0.373-0.2872"/>
          <path id="path3818" stroke="#000" stroke-width=".075978" fill="none" d="m55.979 1.8508l-0.209-0.3957"/>
          <path id="path3822" stroke="#000" stroke-width=".075978" fill="none" d="m56.336 1.8439l0.271-0.3654"/>
          <path id="path3824" stroke="#000" stroke-width=".075978" fill="none" d="m56.493 1.9506l0.406-0.2506"/>
          <g id="g2704" transform="matrix(.027391 0 0 .029076 47.318 -7.564)" fill-rule="evenodd">
            <path id="path2706" stroke-linejoin="round" d="m331.43 530.93a25.714 35.714 0 1 1 -51.43 0 25.714 35.714 0 1 1 51.43 0z" stroke-opacity=".010489" stroke-dashoffset=".9568" transform="matrix(.72926 0 0 .60998 100.12 14.521)" stroke="#ccc" stroke-linecap="round" stroke-width="2.0183"/>
            <path id="path2708" fill="url(#linearGradient4629)" d="m311.37 322.38c8.04-7.61 18.13-5.37 21.92-1.44 7.87 6.4 7.15 14.51 4.05 18.52-2.67 3.44-11.75 6.09-13.2-6.2-2.27-18.11-17.29-4.24-12.77-10.88z"/>
          </g>
        </g>
      </g>
      <g id="g3846" transform="matrix(3.4893 1.0339 -1.0339 3.4893 -107.49 -5.6882)">
        <path id="path3848" stroke="#000" stroke-width=".075978" fill="none" d="m56.186 1.8218l0.012-0.4361"/>
        <g id="g3850">
          <path id="path3852" stroke="#000" stroke-width=".075978" fill="none" d="m55.809 1.9648l-0.373-0.2872"/>
          <path id="path3854" stroke="#000" stroke-width=".075978" fill="none" d="m55.979 1.8508l-0.209-0.3957"/>
          <path id="path3856" stroke="#000" stroke-width=".075978" fill="none" d="m56.336 1.8439l0.271-0.3654"/>
          <path id="path3858" stroke="#000" stroke-width=".075978" fill="none" d="m56.493 1.9506l0.406-0.2506"/>
          <g id="g3860" transform="matrix(.027391 0 0 .029076 47.318 -7.564)" fill-rule="evenodd">
            <path id="path3862" stroke-linejoin="round" d="m331.43 530.93a25.714 35.714 0 1 1 -51.43 0 25.714 35.714 0 1 1 51.43 0z" stroke-opacity=".010489" stroke-dashoffset=".9568" transform="matrix(.72926 0 0 .60998 100.12 14.521)" stroke="#ccc" stroke-linecap="round" stroke-width="2.0183"/>
            <path id="path3864" fill="url(#linearGradient4629)" d="m311.37 322.38c8.04-7.61 18.13-5.37 21.92-1.44 7.87 6.4 7.15 14.51 4.05 18.52-2.67 3.44-11.75 6.09-13.2-6.2-2.27-18.11-17.29-4.24-12.77-10.88z"/>
          </g>
        </g>
      </g>
      <path id="path4127" opacity=".20357" d="m8.1091 31.387l0.3502-25.12 1.3133 25.303-1.6635-0.183z" fill-rule="evenodd" transform="matrix(2.6511 .78554 -.78554 2.6511 18.793 -24.031)" filter="url(#filter4765)"/>
      <path id="path4129" opacity=".23929" d="m37.26 31.582l0.475-25.12 1.782 25.303-2.257-0.183z" fill-rule="evenodd" transform="matrix(2.6511 .78554 -.78554 2.6511 18.793 -24.031)" filter="url(#filter4909)"/>
      <path id="path5509" transform="matrix(.29684 .087956 -.070973 .23953 44.767 60.456)" fill="url(#radialGradient4611)" d="m112.12 114.72a45.735 6.5718 0 1 1 -91.466 0 45.735 6.5718 0 1 1 91.466 0z"/>
      <path id="path5511" stroke-linejoin="round" d="m66.098 80.661c4.055 7.089 1.06 15.11-8.302 14.055-0.546-0.159-4.622-1.408-5.122-1.552-9.799-3.593-5.912-12.804 0.612-16.716 0.473-0.241 0.488-0.6 0.638-0.987 1.429-4.291 2.331-7.106 8.219-5.398 5.733 1.663 4.72 5.261 4.61 6.313-0.113 1.082-0.784 3.241-0.655 4.285z" fill-rule="evenodd" stroke-dashoffset=".9568" stroke="url(#radialGradient4692)" stroke-linecap="round" stroke-width=".13825" fill="url(#radialGradient4690)"/>
      <path id="path5513" stroke-linejoin="round" d="m61.062 72.806c-1.391-0.385-2.569-2.009-3.809-1.198-1.372 0.938-1.949 2.557-2.499 4.031-0.143 0.609-0.387 1.314-1.034 1.553-1.162 0.743 1.263 3.703 0.319 4.712-1.18 1.26-5.642 0.642-6.143 2.295-0.445 1.711-0.309 4.729 1.02 6.002 1.719 1.82 3.959 2.825 6.315 3.588 2.273 0.682 4.937 1.024 7.246 0.411 1.616-0.478 3.301-2.765 3.806-4.346 0.833-2.247-2.874-2.944-3.537-5.225-0.318-1.031 2.888-3.127 2.416-4.097 0.052-0.717 0.103-2.053 0.167-2.768 0.278-1.535 0.29-3.298-0.727-4.626-0.764-0.957-2.365-0.028-3.54-0.332z" fill-rule="evenodd" stroke-dashoffset=".9568" stroke="url(#radialGradient4694)" stroke-linecap="round" stroke-width=".13825" fill="#fff"/>
      <path id="path5515" opacity=".071429" d="m374.72 348.62a43.869 73.116 0 1 1 -87.74 0 43.869 73.116 0 1 1 87.74 0z" fill-rule="evenodd" transform="matrix(.046396 .013748 -.010846 .036602 46.274 57.369)" filter="url(#filter7712)" fill="url(#linearGradient4613)"/>
      <path id="path5517" opacity=".067857" d="m374.72 348.62a43.869 73.116 0 1 1 -87.74 0 43.869 73.116 0 1 1 87.74 0z" fill-rule="evenodd" transform="matrix(.046396 .013748 -.010846 .036602 51.085 58.795)" filter="url(#filter7740)" fill="url(#linearGradient4615)"/>
      <path id="path5523" d="m111.28 335.91c2.08 7.49 7.37 19.75 13.3 27.53 6.6 10.14 13.59 18.33 18.71 28.7 2.31 5 2.03 7.93 0.7 12.66-3.48 5.79-6.44 6.15-14.62 10.54s-9.05 3.16-18.09 7.03c-9.05 3.86-19.665 15.46-18.099 8.43s19.489-19.68 24.359-36.55c1.49-14-1.22-11.4-4.87-30.92-1.57-14.59-3.63-33.07-1.39-27.42z" fill-rule="evenodd" transform="matrix(.050614 .014997 -.014461 .048803 52.478 59.555)" filter="url(#filter7784)" fill="#fff"/>
      <path id="path5525" d="m347.97 339.63c-1.01 7.71-4.52 20.58-9.31 29.13-5.1 10.96-10.88 20.05-14.49 31.04-1.58 5.27-0.89 8.13 1.09 12.62 4.26 5.25 7.24 5.19 15.95 8.39s9.4 1.86 18.9 4.42c9.51 2.55 21.64 12.54 19.11 5.81-2.54-6.74-22.06-16.75-29.26-32.77-3.44-13.66-0.38-11.46 0.48-31.31-0.49-14.66-1.04-33.24-2.47-27.33z" fill-rule="evenodd" transform="matrix(.050614 .014997 -.014461 .048803 52.478 59.555)" filter="url(#filter7828)" fill="#fff"/>
      <g id="g5529" transform="matrix(.050614 .014997 -.012426 .041935 45.981 56.616)" fill-rule="evenodd">
        <path id="path5531" stroke-linejoin="round" d="m331.43 530.93a25.714 35.714 0 1 1 -51.43 0 25.714 35.714 0 1 1 51.43 0z" stroke-opacity=".010489" stroke-dashoffset=".9568" transform="matrix(.72926 0 0 .60998 173.04 17.295)" stroke="#ccc" stroke-linecap="round" stroke-width="4.3139"/>
        <path id="path5533" fill="url(#linearGradient4627)" d="m384.3 325.15c8.04-7.6 18.13-5.36 21.92-1.43 7.87 6.4 7.15 14.5 4.04 18.51-2.66 3.44-11.75 6.1-13.2-6.2-2.26-18.11-17.28-4.23-12.76-10.88z"/>
      </g>
      <g id="g5535" transform="matrix(.050614 .014997 -.012426 .041935 46.155 56.799)" fill-rule="evenodd">
        <path id="path5537" stroke-linejoin="round" d="m331.43 530.93a25.714 35.714 0 1 1 -51.43 0 25.714 35.714 0 1 1 51.43 0z" stroke-opacity=".010489" stroke-dashoffset=".9568" transform="matrix(.72926 0 0 .60998 100.12 14.521)" stroke="#ccc" stroke-linecap="round" stroke-width="4.3139"/>
        <path id="path5539" fill="url(#linearGradient4629)" d="m311.37 322.38c8.04-7.61 18.13-5.37 21.92-1.44 7.87 6.4 7.15 14.51 4.05 18.52-2.67 3.44-11.75 6.09-13.2-6.2-2.27-18.11-17.29-4.24-12.77-10.88z"/>
      </g>
      <path id="path5541" opacity=".651" d="m1500.2 575.96c-13.9 87.04-15.6 87.7-84.6 32.88-42.9-34.15-54.3-43.34-40.9-59.14 6.8-8.15 29.6-15.05 37.1-41.1 4-14.77 9.5-15.5 20.5-8.64 30.2 12.89 51.1 0.08 66.6 2.75 15.8 7.26 10.5 15.42 1.3 73.25z" fill-rule="evenodd" transform="matrix(.043714 .015907 -.017883 .028956 -1.5757 50.623)" filter="url(#filter9203)"/>
      <path id="path5543" fill-rule="evenodd" fill="url(#linearGradient4704)" d="m53.785 90.583c-1.982 2.734-2.068 2.734-4.323-0.026-1.405-1.719-1.773-2.179-0.925-2.531 0.437-0.181 1.57-0.109 2.314-0.882 0.412-0.442 0.672-0.392 1.061-0.015 1.159 0.835 2.3 0.684 2.96 0.982 0.6 0.454 0.23 0.656-1.087 2.472z"/>
      <path id="path5545" d="m57.239 540.38c0.281-2.37 1.171-6.08 3.092-8.64 1.92-2.55 4.731-3.86 8.431-6.69 3.701-2.83 9.556-6.51 13.772-10.32s8.666-7.9 11.523-12.54c2.857-4.65 4.122-11.34 5.621-15.34 1.502-3.99 1.682-6.83 3.372-8.64s4.36-2.42 6.75-2.23c2.38 0.18 4.82 2 7.58 3.34 2.77 1.35 5.58 3.63 9 4.74 3.42 1.12 7.59 1.54 11.52 1.96 3.94 0.41 8.01 0.74 12.09 0.55 4.07-0.18 9.22-1.16 12.36-1.67s13.59-4.37 6.47-1.39c-7.12 2.97-35.74 12.96-49.19 19.23-13.44 6.28-22.435 12.88-31.475 18.41-9.041 5.53-17.847 10.64-22.765 14.77-4.919 4.14-5.387 9.3-6.745 10.04-1.359 0.74-1.687-3.21-1.406-5.58z" fill-rule="evenodd" transform="matrix(.045089 .013360 -.015603 .033531 54.028 69.488)" filter="url(#filter8851)" fill="url(#linearGradient4634)"/>
      <g id="g5553" transform="matrix(.032659 .0096773 -.014385 .048547 103.34 70.019)" fill-rule="evenodd">
        <path id="path5555" fill="#ffaf00" d="m-1134.9 403.85c-33.3 21.54-34.6 21.54-66.7-0.26-20-13.58-25.2-17.21-11.8-19.97 6.9-1.43 24.3-0.84 36.6-6.93 6.8-3.48 10.8-3.09 16.4-0.11 17.1 6.6 34.9 5.43 44.7 7.78 8.9 3.6 3 5.18-19.2 19.49z"/>
        <path id="path5557" opacity=".5274" fill="url(#linearGradient4640)" d="m-1199.6 400.53c0.9 2.72 14.5 10.86 22.1 15.76 7.5 3.06 12.6 2.83 17.4 0.05 8.5-4.83 42.4-23.74 41.5-24.79-6.6 2.5-30.1 14.78-40 17.33-5.6 0.76-9.2 0.04-14.4-1.07-10.3-1.45-24.6-8.8-26.6-7.28z"/>
        <path id="path5559" fill="url(#linearGradient4642)" d="m-1196.1 384.4c2.1-1.83 3.9-1.4 13.2-3.01 5.8-0.99 10.4-5.48 14.6-5.46 5.8 0.06 15.3 7.97 46.5 8.71 4 0.31 8.3 1.94 5.2 4.58-13.2 5.52-26.4 10.05-38.1 14.05-6.2-1-44.3-15.71-41.4-18.87z"/>
      </g>
      <path id="path5643" opacity=".651" d="m1500.2 575.96c-13.9 87.04-15.6 87.7-84.6 32.88-42.9-34.15-54.3-43.34-40.9-59.14 6.8-8.15 29.6-15.05 37.1-41.1 4-14.77 9.5-15.5 20.5-8.64 30.2 12.89 51.1 0.08 66.6 2.75 15.8 7.26 10.5 15.42 1.3 73.25z" fill-rule="evenodd" transform="matrix(-.045324 -.010476 -.00077883 .034024 125.81 88.573)" filter="url(#filter9203)"/>
      <path id="path5645" fill-rule="evenodd" fill="url(#linearGradient4712)" d="m57.616 91.923c0.173 3.372 0.246 3.419 3.64 2.333 2.115-0.676 2.673-0.861 2.154-1.618-0.267-0.391-1.257-0.947-1.46-2.001-0.104-0.594-0.35-0.695-0.881-0.591-1.427 0.069-2.302-0.679-3.017-0.789-0.751 0.054-0.551 0.425-0.436 2.666z"/>
      <path id="path5647" d="m57.239 540.38c0.281-2.37 1.171-6.08 3.092-8.64 1.92-2.55 4.731-3.86 8.431-6.69 3.701-2.83 9.556-6.51 13.772-10.32s8.666-7.9 11.523-12.54c2.857-4.65 4.122-11.34 5.621-15.34 1.502-3.99 1.682-6.83 3.372-8.64s4.36-2.42 6.75-2.23c2.38 0.18 4.82 2 7.58 3.34 2.77 1.35 5.58 3.63 9 4.74 3.42 1.12 7.59 1.54 11.52 1.96 3.94 0.41 8.01 0.74 12.09 0.55 4.07-0.18 9.22-1.16 12.36-1.67s13.59-4.37 6.47-1.39c-7.12 2.97-35.74 12.96-49.19 19.23-13.44 6.28-22.435 12.88-31.475 18.41-9.041 5.53-17.847 10.64-22.765 14.77-4.919 4.14-5.387 9.3-6.745 10.04-1.359 0.74-1.687-3.21-1.406-5.58z" fill-rule="evenodd" transform="matrix(-.045089 -.013360 -.0051827 .036619 68.905 74.101)" filter="url(#filter8851)" fill="url(#linearGradient4634)"/>
      <path id="path3228" fill-rule="evenodd" fill="url(#linearGradient4716)" d="m138.26 24.134l-29.4 101.19-118.29-35.669 29.632-100.5 118.06 34.983z"/>
    </g>
  </g>
  <metadata>
    <rdf:RDF>
      <cc:Work>
        <dc:format>image/svg+xml</dc:format>
        <dc:type rdf:resource="http://purl.org/dc/dcmitype/StillImage"/>
        <cc:license rdf:resource="http://creativecommons.org/licenses/publicdomain/"/>
        <dc:publisher>
          <cc:Agent rdf:about="http://openclipart.org/">
            <dc:title>Openclipart</dc:title>
          </cc:Agent>
        </dc:publisher>
        <dc:title>Tux's family</dc:title>
        <dc:date>2007-09-20T12:38:42</dc:date>
        <dc:description>toon</dc:description>
        <dc:source>http://openclipart.org/detail/5638/tuxs-family-by-kobo</dc:source>
        <dc:creator>
          <cc:Agent>
            <dc:title>kobo</dc:title>
          </cc:Agent>
        </dc:creator>
        <dc:subject>
          <rdf:Bag>
            <rdf:li>black</rdf:li>
            <rdf:li>clip art</rdf:li>
            <rdf:li>clipart</rdf:li>
            <rdf:li>cute</rdf:li>
            <rdf:li>linux</rdf:li>
            <rdf:li>logo</rdf:li>
            <rdf:li>mascot</rdf:li>
            <rdf:li>open source</rdf:li>
            <rdf:li>operating system</rdf:li>
            <rdf:li>penguin</rdf:li>
            <rdf:li>photo</rdf:li>
            <rdf:li>png</rdf:li>
            <rdf:li>polaroid</rdf:li>
            <rdf:li>snapshot</rdf:li>
            <rdf:li>software</rdf:li>
            <rdf:li>svg</rdf:li>
            <rdf:li>tux</rdf:li>
            <rdf:li>tuxedo</rdf:li>
            <rdf:li>unix</rdf:li>
            <rdf:li>white</rdf:li>
          </rdf:Bag>
        </dc:subject>
      </cc:Work>
      <cc:License rdf:about="http://creativecommons.org/licenses/publicdomain/">
        <cc:permits rdf:resource="http://creativecommons.org/ns#Reproduction"/>
        <cc:permits rdf:resource="http://creativecommons.org/ns#Distribution"/>
        <cc:permits rdf:resource="http://creativecommons.org/ns#DerivativeWorks"/>
      </cc:License>
    </rdf:RDF>
  </metadata>
</svg>
