<!DOCTYPE svg PUBLIC "-//W3C//DTD SVG 1.1//EN" "http://www.w3.org/Graphics/SVG/1.1/DTD/svg11.dtd">

<!-- Uploaded to: SVG Repo, www.svgrepo.com, Transformed by: SVG Repo Mixer Tools -->
<svg fill="#000000" width="800px" height="800px" viewBox="0 0 24 24" id="phone-book" data-name="Flat Color" xmlns="http://www.w3.org/2000/svg" class="icon flat-color">

<g id="SVGRepo_bgCarrier" stroke-width="0"/>

<g id="SVGRepo_iconCarrier">

<rect id="primary" x="3" y="2" width="19" height="20" rx="2" style="fill: white;"/>

<path id="secondary" d="M17,15v1a1,1,0,0,1-1,1H10a1,1,0,0,1-1-1V15a4,4,0,0,1,1.6-3.2A3,3,0,0,1,10,10a3,3,0,0,1,6,0,3,3,0,0,1-.6,1.8A4,4,0,0,1,17,15ZM5,11H3a1,1,0,0,0,0,2H5a1,1,0,0,0,0-2Zm0,4H3a1,1,0,0,0,0,2H5a1,1,0,0,0,0-2ZM5,7H3A1,1,0,0,0,3,9H5A1,1,0,0,0,5,7Z" style="fill: #6b9bd2;"/>

</g>

</svg>