<?xml version="1.0" encoding="UTF-8"?> <!-- Generator: Adobe Illustrator 24.3.0, SVG Export Plug-In . SVG Version: 6.00 Build 0) --> <svg xmlns="http://www.w3.org/2000/svg" xmlns:xlink="http://www.w3.org/1999/xlink" version="1.1" id="Layer_1" x="0px" y="0px" viewBox="0 0 46.5 38.5" style="enable-background:new 0 0 46.5 38.5;" xml:space="preserve"> <style type="text/css"> .st0{fill:#7DC9DA;} .st1{fill:#FFFFFF;} </style> <g id="Layer_1_7_"> <g> <path class="st0" d="M23.2,37.5c10.1,0,18.2-8.2,18.2-18.2S33.3,1,23.2,1S5,9.2,5,19.2S13.2,37.5,23.2,37.5"></path> </g> </g> <g> <path class="st1" d="M23.2,35.5c-4.3,0-8.4-1.7-11.5-4.7S7,23.6,7,19.2s1.7-8.4,4.7-11.5S18.9,3,23.2,3s8.4,1.7,11.5,4.7 s4.7,7.1,4.7,11.5s-1.7,8.4-4.7,11.5S27.6,35.5,23.2,35.5z M23.2,5.1C15.4,5.1,9,11.5,9,19.3s6.3,14.2,14.2,14.2S37.4,27,37.4,19.2 S31.1,5.1,23.2,5.1z"></path> </g> <path class="st1" d="M19.5,19.6v-4.8c0-0.6,0.7-1,1.2-0.7l4.2,2.4l4.2,2.4c0.5,0.3,0.5,1.1,0,1.4l-4.2,2.4l-4.2,2.4 c-0.5,0.3-1.2-0.1-1.2-0.7V19.6z"></path> </svg> 